<?xml version="1.0" standalone="no"?>
<!DOCTYPE svg PUBLIC "-//W3C//DTD SVG 20010904//EN"
 "http://www.w3.org/TR/2001/REC-SVG-20010904/DTD/svg10.dtd">
<svg version="1.0" xmlns="http://www.w3.org/2000/svg"
 width="514.000000pt" height="514.000000pt" viewBox="0 0 514.000000 514.000000"
 preserveAspectRatio="xMidYMid meet">
<metadata>
Created by potrace 1.14, written by Peter Selinger 2001-2017
</metadata>
<g transform="translate(0.000000,514.000000) scale(0.100000,-0.100000)"
fill="#000000" stroke="none">
<path d="M75 5126 c-16 -7 -39 -23 -50 -36 -20 -22 -20 -38 -23 -2494 -2
-1670 0 -2483 7 -2507 6 -19 22 -46 37 -60 l26 -24 2471 -3 c1671 -2 2484 0
2508 7 19 6 46 22 60 37 l24 26 3 2471 c2 1671 0 2484 -7 2508 -6 19 -22 46
-37 60 l-26 24 -2481 2 c-2046 2 -2487 0 -2512 -11z"/>
</g>
</svg>
