<svg width="421" height="302" viewBox="0 0 421 302" fill="none" xmlns="http://www.w3.org/2000/svg">
<rect y="1" width="50" height="230" fill="#171E1D"/>
<rect x="74" width="50" height="230" fill="#171E1D"/>
<rect x="149" width="50" height="230" fill="#171E1D"/>
<rect x="222" y="2" width="50" height="160" fill="#171E1D"/>
<rect x="296" y="65" width="50" height="165" fill="#171E1D"/>
<rect x="371" y="1" width="50" height="230" fill="#FA6300"/>
<path d="M19.875 286.727C16.3906 286.727 13.3906 285.938 10.875 284.359C8.375 282.766 6.45313 280.57 5.10938 277.773C3.76563 274.977 3.09375 271.773 3.09375 268.164C3.09375 264.508 3.78125 261.281 5.15625 258.484C6.53125 255.672 8.46875 253.477 10.9688 251.898C13.4688 250.32 16.4141 249.531 19.8047 249.531C22.5391 249.531 24.9766 250.039 27.1172 251.055C29.2578 252.055 30.9844 253.461 32.2969 255.273C33.625 257.086 34.4141 259.203 34.6641 261.625H27.8438C27.4688 259.937 26.6094 258.484 25.2656 257.266C23.9375 256.047 22.1563 255.437 19.9219 255.437C17.9688 255.437 16.2578 255.953 14.7891 256.984C13.3359 258 12.2031 259.453 11.3906 261.344C10.5781 263.219 10.1719 265.437 10.1719 268C10.1719 270.625 10.5703 272.891 11.3672 274.797C12.1641 276.703 13.2891 278.18 14.7422 279.227C16.2109 280.273 17.9375 280.797 19.9219 280.797C21.25 280.797 22.4531 280.555 23.5313 280.07C24.625 279.57 25.5391 278.859 26.2734 277.937C27.0234 277.016 27.5469 275.906 27.8438 274.609H34.6641C34.4141 276.937 33.6563 279.016 32.3906 280.844C31.125 282.672 29.4297 284.109 27.3047 285.156C25.1953 286.203 22.7188 286.727 19.875 286.727ZM52.6348 286.797C50.3535 286.797 48.291 286.375 46.4473 285.531C44.6035 284.672 43.1426 283.43 42.0645 281.805C41.002 280.18 40.4707 278.187 40.4707 275.828C40.4707 273.797 40.8613 272.125 41.6426 270.812C42.4238 269.5 43.4785 268.461 44.8066 267.695C46.1348 266.93 47.6191 266.352 49.2598 265.961C50.9004 265.57 52.5723 265.273 54.2754 265.07C56.4316 264.82 58.1816 264.617 59.5254 264.461C60.8691 264.289 61.8457 264.016 62.4551 263.641C63.0645 263.266 63.3691 262.656 63.3691 261.812V261.648C63.3691 259.602 62.791 258.016 61.6348 256.891C60.4941 255.766 58.791 255.203 56.5254 255.203C54.166 255.203 52.3066 255.727 50.9473 256.773C49.6035 257.805 48.6738 258.953 48.1582 260.219L41.5723 258.719C42.3535 256.531 43.4941 254.766 44.9941 253.422C46.5098 252.062 48.252 251.078 50.2207 250.469C52.1895 249.844 54.2598 249.531 56.4316 249.531C57.8691 249.531 59.3926 249.703 61.002 250.047C62.627 250.375 64.1426 250.984 65.5488 251.875C66.9707 252.766 68.1348 254.039 69.041 255.695C69.9473 257.336 70.4004 259.469 70.4004 262.094V286H63.5566V281.078H63.2754C62.8223 281.984 62.1426 282.875 61.2363 283.75C60.3301 284.625 59.166 285.352 57.7441 285.93C56.3223 286.508 54.6191 286.797 52.6348 286.797ZM54.1582 281.172C56.0957 281.172 57.752 280.789 59.127 280.023C60.5176 279.258 61.5723 278.258 62.291 277.023C63.0254 275.773 63.3926 274.437 63.3926 273.016V268.375C63.1426 268.625 62.6582 268.859 61.9395 269.078C61.2363 269.281 60.4316 269.461 59.5254 269.617C58.6191 269.758 57.7363 269.891 56.877 270.016C56.0176 270.125 55.2988 270.219 54.7207 270.297C53.3613 270.469 52.1191 270.758 50.9941 271.164C49.8848 271.57 48.9941 272.156 48.3223 272.922C47.666 273.672 47.3379 274.672 47.3379 275.922C47.3379 277.656 47.9785 278.969 49.2598 279.859C50.541 280.734 52.1738 281.172 54.1582 281.172ZM95.25 286.727C91.7031 286.727 88.6484 285.969 86.0859 284.453C83.5391 282.922 81.5703 280.773 80.1797 278.008C78.8047 275.227 78.1172 271.969 78.1172 268.234C78.1172 264.547 78.8047 261.297 80.1797 258.484C81.5703 255.672 83.5078 253.477 85.9922 251.898C88.4922 250.32 91.4141 249.531 94.7578 249.531C96.7891 249.531 98.7578 249.867 100.664 250.539C102.57 251.211 104.281 252.266 105.797 253.703C107.313 255.141 108.508 257.008 109.383 259.305C110.258 261.586 110.695 264.359 110.695 267.625V270.109H82.0781V264.859H103.828C103.828 263.016 103.453 261.383 102.703 259.961C101.953 258.523 100.898 257.391 99.5391 256.562C98.1953 255.734 96.6172 255.32 94.8047 255.32C92.8359 255.32 91.1172 255.805 89.6484 256.773C88.1953 257.727 87.0703 258.977 86.2734 260.523C85.4922 262.055 85.1016 263.719 85.1016 265.516V269.617C85.1016 272.023 85.5234 274.07 86.3672 275.758C87.2266 277.445 88.4219 278.734 89.9531 279.625C91.4844 280.5 93.2734 280.937 95.3203 280.937C96.6484 280.937 97.8594 280.75 98.9531 280.375C100.047 279.984 100.992 279.406 101.789 278.641C102.586 277.875 103.195 276.93 103.617 275.805L110.25 277C109.719 278.953 108.766 280.664 107.391 282.133C106.031 283.586 104.32 284.719 102.258 285.531C100.211 286.328 97.875 286.727 95.25 286.727ZM145.447 258.789L139.096 259.914C138.83 259.102 138.408 258.328 137.83 257.594C137.268 256.859 136.502 256.258 135.533 255.789C134.564 255.32 133.354 255.086 131.9 255.086C129.916 255.086 128.26 255.531 126.932 256.422C125.604 257.297 124.939 258.43 124.939 259.82C124.939 261.023 125.385 261.992 126.275 262.727C127.166 263.461 128.604 264.062 130.588 264.531L136.307 265.844C139.619 266.609 142.088 267.789 143.713 269.383C145.338 270.977 146.15 273.047 146.15 275.594C146.15 277.75 145.525 279.672 144.275 281.359C143.041 283.031 141.314 284.344 139.096 285.297C136.893 286.25 134.338 286.727 131.432 286.727C127.4 286.727 124.111 285.867 121.564 284.148C119.018 282.414 117.455 279.953 116.877 276.766L123.65 275.734C124.072 277.5 124.939 278.836 126.252 279.742C127.564 280.633 129.275 281.078 131.385 281.078C133.682 281.078 135.518 280.602 136.893 279.648C138.268 278.68 138.955 277.5 138.955 276.109C138.955 274.984 138.533 274.039 137.689 273.273C136.861 272.508 135.588 271.93 133.869 271.539L127.775 270.203C124.416 269.438 121.932 268.219 120.322 266.547C118.729 264.875 117.932 262.758 117.932 260.195C117.932 258.07 118.525 256.211 119.713 254.617C120.9 253.023 122.541 251.781 124.635 250.891C126.729 249.984 129.127 249.531 131.83 249.531C135.721 249.531 138.783 250.375 141.018 252.062C143.252 253.734 144.729 255.977 145.447 258.789ZM164.332 286.797C162.051 286.797 159.988 286.375 158.145 285.531C156.301 284.672 154.84 283.43 153.762 281.805C152.699 280.18 152.168 278.187 152.168 275.828C152.168 273.797 152.559 272.125 153.34 270.812C154.121 269.5 155.176 268.461 156.504 267.695C157.832 266.93 159.316 266.352 160.957 265.961C162.598 265.57 164.27 265.273 165.973 265.07C168.129 264.82 169.879 264.617 171.223 264.461C172.566 264.289 173.543 264.016 174.152 263.641C174.762 263.266 175.066 262.656 175.066 261.812V261.648C175.066 259.602 174.488 258.016 173.332 256.891C172.191 255.766 170.488 255.203 168.223 255.203C165.863 255.203 164.004 255.727 162.645 256.773C161.301 257.805 160.371 258.953 159.855 260.219L153.27 258.719C154.051 256.531 155.191 254.766 156.691 253.422C158.207 252.062 159.949 251.078 161.918 250.469C163.887 249.844 165.957 249.531 168.129 249.531C169.566 249.531 171.09 249.703 172.699 250.047C174.324 250.375 175.84 250.984 177.246 251.875C178.668 252.766 179.832 254.039 180.738 255.695C181.645 257.336 182.098 259.469 182.098 262.094V286H175.254V281.078H174.973C174.52 281.984 173.84 282.875 172.934 283.75C172.027 284.625 170.863 285.352 169.441 285.93C168.02 286.508 166.316 286.797 164.332 286.797ZM165.855 281.172C167.793 281.172 169.449 280.789 170.824 280.023C172.215 279.258 173.27 278.258 173.988 277.023C174.723 275.773 175.09 274.437 175.09 273.016V268.375C174.84 268.625 174.355 268.859 173.637 269.078C172.934 269.281 172.129 269.461 171.223 269.617C170.316 269.758 169.434 269.891 168.574 270.016C167.715 270.125 166.996 270.219 166.418 270.297C165.059 270.469 163.816 270.758 162.691 271.164C161.582 271.57 160.691 272.156 160.02 272.922C159.363 273.672 159.035 274.672 159.035 275.922C159.035 277.656 159.676 278.969 160.957 279.859C162.238 280.734 163.871 281.172 165.855 281.172ZM191.432 286V250H198.205V255.719H198.58C199.236 253.781 200.393 252.258 202.049 251.148C203.721 250.023 205.611 249.461 207.721 249.461C208.158 249.461 208.674 249.477 209.268 249.508C209.877 249.539 210.354 249.578 210.697 249.625V256.328C210.416 256.25 209.916 256.164 209.197 256.07C208.479 255.961 207.76 255.906 207.041 255.906C205.385 255.906 203.908 256.258 202.611 256.961C201.33 257.648 200.314 258.609 199.564 259.844C198.814 261.062 198.439 262.453 198.439 264.016V286H191.432ZM217.254 286.445C215.973 286.445 214.871 285.992 213.949 285.086C213.027 284.164 212.566 283.055 212.566 281.758C212.566 280.477 213.027 279.383 213.949 278.477C214.871 277.555 215.973 277.094 217.254 277.094C218.535 277.094 219.637 277.555 220.559 278.477C221.48 279.383 221.941 280.477 221.941 281.758C221.941 282.617 221.723 283.406 221.285 284.125C220.863 284.828 220.301 285.391 219.598 285.812C218.895 286.234 218.113 286.445 217.254 286.445ZM246.492 286.727C243.008 286.727 240.008 285.938 237.492 284.359C234.992 282.766 233.07 280.57 231.727 277.773C230.383 274.977 229.711 271.773 229.711 268.164C229.711 264.508 230.398 261.281 231.773 258.484C233.148 255.672 235.086 253.477 237.586 251.898C240.086 250.32 243.031 249.531 246.422 249.531C249.156 249.531 251.594 250.039 253.734 251.055C255.875 252.055 257.602 253.461 258.914 255.273C260.242 257.086 261.031 259.203 261.281 261.625H254.461C254.086 259.937 253.227 258.484 251.883 257.266C250.555 256.047 248.773 255.437 246.539 255.437C244.586 255.437 242.875 255.953 241.406 256.984C239.953 258 238.82 259.453 238.008 261.344C237.195 263.219 236.789 265.437 236.789 268C236.789 270.625 237.188 272.891 237.984 274.797C238.781 276.703 239.906 278.18 241.359 279.227C242.828 280.273 244.555 280.797 246.539 280.797C247.867 280.797 249.07 280.555 250.148 280.07C251.242 279.57 252.156 278.859 252.891 277.937C253.641 277.016 254.164 275.906 254.461 274.609H261.281C261.031 276.937 260.273 279.016 259.008 280.844C257.742 282.672 256.047 284.109 253.922 285.156C251.813 286.203 249.336 286.727 246.492 286.727ZM283.939 286.727C280.564 286.727 277.619 285.953 275.104 284.406C272.588 282.859 270.635 280.695 269.244 277.914C267.854 275.133 267.158 271.883 267.158 268.164C267.158 264.43 267.854 261.164 269.244 258.367C270.635 255.57 272.588 253.398 275.104 251.852C277.619 250.305 280.564 249.531 283.939 249.531C287.314 249.531 290.26 250.305 292.775 251.852C295.291 253.398 297.244 255.57 298.635 258.367C300.025 261.164 300.721 264.43 300.721 268.164C300.721 271.883 300.025 275.133 298.635 277.914C297.244 280.695 295.291 282.859 292.775 284.406C290.26 285.953 287.314 286.727 283.939 286.727ZM283.963 280.844C286.15 280.844 287.963 280.266 289.4 279.109C290.838 277.953 291.9 276.414 292.588 274.492C293.291 272.57 293.643 270.453 293.643 268.141C293.643 265.844 293.291 263.734 292.588 261.812C291.9 259.875 290.838 258.32 289.4 257.148C287.963 255.977 286.15 255.391 283.963 255.391C281.76 255.391 279.932 255.977 278.479 257.148C277.041 258.32 275.971 259.875 275.268 261.812C274.58 263.734 274.236 265.844 274.236 268.141C274.236 270.453 274.58 272.57 275.268 274.492C275.971 276.414 277.041 277.953 278.479 279.109C279.932 280.266 281.76 280.844 283.963 280.844ZM322.02 286.703C319.113 286.703 316.52 285.961 314.238 284.477C311.973 282.977 310.191 280.844 308.895 278.078C307.613 275.297 306.973 271.961 306.973 268.07C306.973 264.18 307.621 260.852 308.918 258.086C310.23 255.32 312.027 253.203 314.309 251.734C316.59 250.266 319.176 249.531 322.066 249.531C324.301 249.531 326.098 249.906 327.457 250.656C328.832 251.391 329.895 252.25 330.645 253.234C331.41 254.219 332.004 255.086 332.426 255.836H332.848V238H339.855V286H333.012V280.398H332.426C332.004 281.164 331.395 282.039 330.598 283.023C329.816 284.008 328.738 284.867 327.363 285.602C325.988 286.336 324.207 286.703 322.02 286.703ZM323.566 280.727C325.582 280.727 327.285 280.195 328.676 279.133C330.082 278.055 331.145 276.562 331.863 274.656C332.598 272.75 332.965 270.531 332.965 268C332.965 265.5 332.605 263.312 331.887 261.437C331.168 259.562 330.113 258.102 328.723 257.055C327.332 256.008 325.613 255.484 323.566 255.484C321.457 255.484 319.699 256.031 318.293 257.125C316.887 258.219 315.824 259.711 315.105 261.602C314.402 263.492 314.051 265.625 314.051 268C314.051 270.406 314.41 272.57 315.129 274.492C315.848 276.414 316.91 277.937 318.316 279.062C319.738 280.172 321.488 280.727 323.566 280.727ZM365.373 286.727C361.826 286.727 358.771 285.969 356.209 284.453C353.662 282.922 351.693 280.773 350.303 278.008C348.928 275.227 348.24 271.969 348.24 268.234C348.24 264.547 348.928 261.297 350.303 258.484C351.693 255.672 353.631 253.477 356.115 251.898C358.615 250.32 361.537 249.531 364.881 249.531C366.912 249.531 368.881 249.867 370.787 250.539C372.693 251.211 374.404 252.266 375.92 253.703C377.436 255.141 378.631 257.008 379.506 259.305C380.381 261.586 380.818 264.359 380.818 267.625V270.109H352.201V264.859H373.951C373.951 263.016 373.576 261.383 372.826 259.961C372.076 258.523 371.021 257.391 369.662 256.562C368.318 255.734 366.74 255.32 364.928 255.32C362.959 255.32 361.24 255.805 359.771 256.773C358.318 257.727 357.193 258.977 356.396 260.523C355.615 262.055 355.225 263.719 355.225 265.516V269.617C355.225 272.023 355.646 274.07 356.49 275.758C357.35 277.445 358.545 278.734 360.076 279.625C361.607 280.5 363.396 280.937 365.443 280.937C366.771 280.937 367.982 280.75 369.076 280.375C370.17 279.984 371.115 279.406 371.912 278.641C372.709 277.875 373.318 276.93 373.74 275.805L380.373 277C379.842 278.953 378.889 280.664 377.514 282.133C376.154 283.586 374.443 284.719 372.381 285.531C370.334 286.328 367.998 286.727 365.373 286.727ZM415.57 258.789L409.219 259.914C408.953 259.102 408.531 258.328 407.953 257.594C407.391 256.859 406.625 256.258 405.656 255.789C404.688 255.32 403.477 255.086 402.023 255.086C400.039 255.086 398.383 255.531 397.055 256.422C395.727 257.297 395.062 258.43 395.062 259.82C395.062 261.023 395.508 261.992 396.398 262.727C397.289 263.461 398.727 264.062 400.711 264.531L406.43 265.844C409.742 266.609 412.211 267.789 413.836 269.383C415.461 270.977 416.273 273.047 416.273 275.594C416.273 277.75 415.648 279.672 414.398 281.359C413.164 283.031 411.438 284.344 409.219 285.297C407.016 286.25 404.461 286.727 401.555 286.727C397.523 286.727 394.234 285.867 391.688 284.148C389.141 282.414 387.578 279.953 387 276.766L393.773 275.734C394.195 277.5 395.063 278.836 396.375 279.742C397.688 280.633 399.398 281.078 401.508 281.078C403.805 281.078 405.641 280.602 407.016 279.648C408.391 278.68 409.078 277.5 409.078 276.109C409.078 274.984 408.656 274.039 407.813 273.273C406.984 272.508 405.711 271.93 403.992 271.539L397.898 270.203C394.539 269.438 392.055 268.219 390.445 266.547C388.852 264.875 388.055 262.758 388.055 260.195C388.055 258.07 388.648 256.211 389.836 254.617C391.023 253.023 392.664 251.781 394.758 250.891C396.852 249.984 399.25 249.531 401.953 249.531C405.844 249.531 408.906 250.375 411.141 252.062C413.375 253.734 414.852 255.977 415.57 258.789Z" fill="#171E1D"/>
</svg>
